HIERARCHY
ROOT Hips
{
  OFFSET 265.287 66.7526 -254.649
  CHANNELS 6 Xposition Yposition Zposition Zrotation Xrotation Yrotation
  JOINT LeftUpLeg
  {
    OFFSET 8.64259 1.95398 -2.38835
    CHANNELS 3 Zrotation Xrotation Yrotation
    JOINT LeftLeg
    {
      OFFSET 43.7702 0 0
      CHANNELS 3 Zrotation Xrotation Yrotation
      JOINT LeftFoot
      {
        OFFSET 40.6238 0 0
        CHANNELS 3 Zrotation Xrotation Yrotation
        JOINT LeftToeBase
        {
          OFFSET 12.7242 0 0
          CHANNELS 3 Zrotation Xrotation Yrotation
          End Site
          {
            OFFSET 0 0 0
          }
        }
      }
    }
  }
  JOINT RightUpLeg
  {
    OFFSET -8.2249 1.95398 -2.59336
    CHANNELS 3 Zrotation Xrotation Yrotation
    JOINT RightLeg
    {
      OFFSET 43.5653 0 0
      CHANNELS 3 Zrotation Xrotation Yrotation
      JOINT RightFoot
      {
        OFFSET 40.6238 0 0
        CHANNELS 3 Zrotation Xrotation Yrotation
        JOINT RightToeBase
        {
          OFFSET 12.7242 0 0
          CHANNELS 3 Zrotation Xrotation Yrotation
          End Site
          {
            OFFSET 0 0 0
          }
        }
      }
    }
  }
  JOINT Spine
  {
    OFFSET 0.165834 0.87714 6.61349
    CHANNELS 3 Zrotation Xrotation Yrotation
    JOINT Spine1
    {
      OFFSET 7.38963 1.71661e-005 0
      CHANNELS 3 Zrotation Xrotation Yrotation
      JOINT Spine2
      {
        OFFSET 11.9445 1.14441e-005 0
        CHANNELS 3 Zrotation Xrotation Yrotation
        JOINT Spine3
        {
          OFFSET 14.7254 4.19617e-005 0
          CHANNELS 3 Zrotation Xrotation Yrotation
          JOINT Spine4
          {
            OFFSET 10.9679 0 0
            CHANNELS 3 Zrotation Xrotation Yrotation
            JOINT RightShoulder
            {
              OFFSET 2.46616 -1.6653 3.69651
              CHANNELS 3 Zrotation Xrotation Yrotation
              JOINT RightArm
              {
                OFFSET 13.0012 0 0
                CHANNELS 3 Zrotation Xrotation Yrotation
                JOINT RightForeArm
                {
                  OFFSET 28.7848 1.52588e-005 0
                  CHANNELS 3 Zrotation Xrotation Yrotation
                  JOINT RightHand
                  {
                    OFFSET 26.5688 1.52588e-005 0
                    CHANNELS 3 Zrotation Xrotation Yrotation
                    End Site
                    {
                      OFFSET 0 0 0
                    }
                  }
                }
              }
            }
            JOINT LeftShoulder
            {
              OFFSET 2.38034 -1.29275 -3.7523
              CHANNELS 3 Zrotation Xrotation Yrotation
              JOINT LeftArm
              {
                OFFSET 16.3182 6.10351e-005 0
                CHANNELS 3 Zrotation Xrotation Yrotation
                JOINT LeftForeArm
                {
                  OFFSET 27.0901 0 0
                  CHANNELS 3 Zrotation Xrotation Yrotation
                  JOINT LeftHand
                  {
                    OFFSET 24.5451 1.52588e-005 0
                    CHANNELS 3 Zrotation Xrotation Yrotation
                    End Site
                    {
                      OFFSET 0 0 0
                    }
                  }
                }
              }
            }
            JOINT Neck
            {
              OFFSET 5.0226 -0.0266342 0
              CHANNELS 3 Zrotation Xrotation Yrotation
              JOINT Head
              {
                OFFSET 6.69364 2.86102e-005 0
                CHANNELS 3 Zrotation Xrotation Yrotation
                End Site
                {
                  OFFSET 0 0 0
                }
              }
            }
          }
        }
      }
    }
  }
}
MOTION
Frames:	7
Frame Time:	0.0416667
-0.00188795 96.8412 -6.35342 155.005 -88.7025 155.288 -172.483 1.7834 91.6375 -13.3284 3.17968 1.71969 67.8401 2.87906 -0.802981 27.7106 0.0770125 2.0665 175.484 2.16675 87.9881 -12.6326 -8.91973 -0.959731 66.2637 -2.73828 2.27862 28.8187 0.0995358 -0.91601 -0.470181 7.1959 -90.1477 12.4816 -1.00443 -0.17939 0.811028 -1.01134 -0.135018 -21.7267 -0.904076 -0.472988 -1.71403 -0.904064 -0.472987 101.422 -50.0812 -83.3235 31.0853 -4.5686 -6.07906 0.865325 -9.95124 -12.3735 -13.1839 -0.576236 -0.108557 -80.2025 -50.9409 93.3292 -27.9783 13.2828 -18.0952 2.73817 19.4991 -6.18069 6.09541 -0.0517978 -3.84666 -5.53299 -27.7253 10.8094 -11.7679 -26.3834 -34.326 
0.01744 96.845 -6.32498 154.051 -88.903 154.298 -172.5 1.8642 91.5715 -13.1544 3.16516 1.67725 67.723 2.88604 -0.630282 27.8404 0.0559154 1.92926 175.535 2.42146 87.9844 -12.7763 -8.81792 -0.996478 66.304 -2.71462 2.22482 28.6871 0.046604 -0.283974 -0.449947 7.13613 -90.1233 12.6015 -0.952533 -0.13498 0.930849 -0.957553 -0.0929369 -21.6067 -0.867931 -0.415043 -1.59403 -0.86793 -0.415045 101.289 -50.7711 -83.5195 30.5685 -4.59233 -5.71058 0.93024 -10.0191 -12.274 -13.315 -0.543271 -0.455439 -80.1888 -50.7065 93.3396 -28.22 13.1229 -17.7651 2.70217 19.6879 -5.81964 5.6166 -0.0546998 -3.85655 -4.32094 -24.3675 9.92906 -10.2342 -23.6082 -30.3852 
0.0297576 96.845 -6.2937 152.978 -88.933 153.221 -172.486 1.83399 91.5732 -13.0443 3.35118 1.66526 67.5858 2.876 -0.541605 27.9173 0.0138049 2.0895 175.503 2.36142 87.9385 -12.5876 -8.62735 -0.977826 66.2398 -2.6175 2.62897 28.789 0.0531795 -0.468748 -0.426848 7.09251 -90.1478 12.6884 -0.918309 -0.187024 1.0178 -0.925652 -0.146431 -21.5194 -0.819641 -0.454384 -1.50678 -0.819648 -0.45439 101.209 -50.8158 -83.643 30.4058 -4.66763 -5.3325 1.02102 -9.48848 -12.4799 -13.2348 -0.574977 -0.142688 -80.1978 -50.9674 93.3373 -28.2935 12.9181 -17.4461 2.7094 19.6193 -5.68416 5.45026 -0.0620931 -3.94096 -2.54316 -19.8605 9.27221 -8.57793 -19.7332 -25.4988 
-0.00339349 96.8279 -6.27906 149.541 -88.7264 149.799 -172.471 1.77304 91.6337 -13.2031 3.3422 1.69985 67.6684 2.86665 -0.650211 27.9354 0.0254574 1.95008 175.455 2.16254 87.9698 -12.564 -8.74108 -0.928631 66.3603 -2.79251 2.30145 28.699 0.0922133 -0.694236 -0.374415 7.13094 -90.1534 12.6115 -0.816878 -0.210969 0.94076 -0.825369 -0.174815 -21.5959 -0.715703 -0.446727 -1.58328 -0.715708 -0.446734 101.337 -50.8922 -83.4434 30.3935 -4.67901 -5.72883 0.999344 -9.75909 -12.4326 -13.6273 -0.573568 -0.302113 -80.476 -50.7958 92.9114 -28.5626 12.6332 -17.8838 2.81727 19.7186 -5.34891 5.57299 -0.0531371 -3.83127 -0.37872 -15.3063 7.5653 -7.00932 -15.5534 -20.8248 
-0.0603805 96.8428 -6.29453 143.487 -88.4903 143.615 -172.48 1.65955 91.5793 -13.138 3.57316 1.67576 67.6304 2.88586 -0.638445 27.9338 0.036727 1.86121 175.426 2.13306 87.8896 -12.7873 -8.3501 -0.981977 66.3833 -2.71928 2.41184 28.8767 0.0329124 -0.410811 -0.352864 7.12733 -90.1505 12.6187 -0.772665 -0.210287 0.947948 -0.781178 -0.17608 -21.5886 -0.673747 -0.432788 -1.57591 -0.673755 -0.432801 101.221 -51.0611 -83.6205 30.1014 -4.6394 -5.69224 0.970445 -10.1181 -12.4311 -13.5619 -0.554273 -0.448354 -80.5423 -50.8887 92.8163 -28.4293 12.722 -18.116 2.63479 19.7639 -5.07472 5.90862 -0.0541679 -3.86755 2.30737 -10.7868 6.55128 -8.36742 -10.9618 -17.3815 
-0.0913797 96.8266 -6.31987 139.065 -88.3072 139.131 -172.508 1.71144 91.5465 -13.3123 3.68122 1.67281 67.7106 2.92678 -0.503724 27.8951 0.0852165 1.55814 175.428 2.13007 87.8825 -12.9648 -8.29604 -1.00187 66.5296 -2.81803 2.20086 28.9148 0.0473236 -0.586888 -0.313428 7.11872 -90.1656 12.6358 -0.701555 -0.248707 0.965001 -0.71183 -0.217596 -21.5711 -0.59438 -0.448062 -1.55848 -0.594377 -0.448068 101.188 -50.9225 -83.6724 30.1385 -4.78018 -5.63247 1.11797 -9.04638 -12.4021 -13.2146 -0.504881 -0.764657 -80.5239 -51.3207 92.8647 -27.9086 12.8741 -18.3448 2.57152 20.2429 -5.19707 5.91879 -0.0539603 -3.8552 3.13281 -7.12675 5.33499 -8.41878 -7.32606 -13.8454 
-0.112184 96.8092 -6.38352 133.753 -88.1251 133.751 -172.666 1.76308 91.4392 -13.3525 3.93596 1.78077 67.6238 2.91674 -0.482485 27.9542 0.0132489 2.00549 175.382 2.25506 87.8212 -13.2194 -8.07859 -0.984427 66.6455 -2.77809 2.36618 28.7048 0.0572628 -0.400458 -0.296627 7.11209 -90.1598 12.6491 -0.665412 -0.241148 0.978291 -0.67538 -0.211629 -21.5577 -0.562174 -0.42999 -1.54508 -0.56217 -0.429985 101.105 -51.0805 -83.7987 29.928 -4.84131 -5.64288 1.13061 -9.50222 -12.4259 -13.4336 -0.519759 -0.70733 -80.5654 -51.3204 92.8027 -27.603 13.3726 -17.9737 2.61614 19.7512 -6.1213 5.41547 -0.00953102 -3.18435 4.86767 -3.53431 3.78771 -9.57324 -3.60846 -10.4909 
